<?xml version="1.0" encoding="UTF-8"?>
<svg width="168px" height="54px" viewBox="0 0 168 54" version="1.1" xmlns="http://www.w3.org/2000/svg" xmlns:xlink="http://www.w3.org/1999/xlink">
    <!-- Generator: Sketch 51.3 (57544) - http://www.bohemiancoding.com/sketch -->
    <title>Group 32 Copy</title>
    <desc>Created with Sketch.</desc>
    <defs></defs>
    <g id="支付页" stroke="none" stroke-width="1" fill="none" fill-rule="evenodd">
        <g id="视频开通页" transform="translate(-653.000000, -573.000000)" fill-rule="nonzero">
            <g id="Group-32-Copy" transform="translate(653.000000, 573.000000)">
                <g id="Group-26-Copy-4">
                    <path d="M168,7.29713749 C166.023537,8.77290798 164.730388,11.2247974 164.730388,14 C164.730388,16.7752026 166.023537,19.227092 168,20.7028625 L168,28 L89.52931,28 L-7.16227078e-12,28 L-7.16227078e-12,20.7028625 C1.97646317,19.227092 3.26961208,16.7752026 3.26961208,14 C3.26961208,11.2247974 1.97646317,8.77290798 -4.25559588e-12,7.29713749 L-7.16227078e-12,2.4 C-7.1624331e-12,1.0745166 1.0745166,-1.81652547e-12 2.4,-1.81676896e-12 L89.52931,-1.8189894e-12 L165.6,-1.81543669e-12 C166.925483,-1.81543669e-12 168,1.0745166 168,2.4 L168,7.29713749 Z" id="Combined-Shape" fill="#FF3900"></path>
                    <path d="M167.4,33.0032897 L167.4,26.6 L0.6,26.6 L0.6,33.0032897 C2.64125856,34.64681 3.86961208,37.2153047 3.86961208,40 C3.86961208,42.7846953 2.64125856,45.35319 0.6,46.9967103 L0.6,51.6 C0.6,52.5941125 1.40588745,53.4 2.4,53.4 L165.6,53.4 C166.594113,53.4 167.4,52.5941125 167.4,51.6 L167.4,46.9967103 C165.358741,45.35319 164.130388,42.7846953 164.130388,40 C164.130388,37.2153047 165.358741,34.64681 167.4,33.0032897 Z" id="Combined-Shape-Copy-2" stroke="#FF3900" stroke-width="1.2" fill="#FFFFFF"></path>
                </g>
            </g>
        </g>
    </g>
</svg>